<?xml version="1.0" encoding="UTF-8" standalone="no"?>
<svg xmlns="http://www.w3.org/2000/svg" width="300" height="400" viewBox="0 0 300 400">
  <!-- Selene Signature Template -->
  <rect x="0" y="0" width="300" height="400" rx="5" ry="5" fill="#000" stroke="#D4AF37" stroke-width="2"/>
  <text x="150" y="55" text-anchor="middle" fill="#D4AF37" font-family="Arial" font-weight="bold" font-size="30">SELENE</text>
  <text x="150" y="90" text-anchor="middle" fill="#D4AF37" font-family="Arial" font-weight="bold" font-size="30">SIGNATURE</text>
  <line x1="30" y1="120" x2="270" y2="120" stroke="#D4AF37" stroke-width="1"/>
  
  <!-- Ornate border for Selene template -->
  <path d="M50 140 L80 140 L80 155 L50 155 Z" fill="none" stroke="#D4AF37" stroke-width="0.8"/>
  <path d="M220 140 L250 140 L250 155 L220 155 Z" fill="none" stroke="#D4AF37" stroke-width="0.8"/>
  <path d="M50 290 L80 290 L80 305 L50 305 Z" fill="none" stroke="#D4AF37" stroke-width="0.8"/>
  <path d="M220 290 L250 290 L250 305 L220 305 Z" fill="none" stroke="#D4AF37" stroke-width="0.8"/>
  
  <rect x="80" y="155" width="140" height="135" rx="2" ry="2" fill="#222" stroke="#D4AF37" stroke-width="1"/>
  <text x="150" y="225" text-anchor="middle" fill="#999" font-family="Arial" font-size="16">Luxury Layout</text>
  
  <!-- Gold accents for Selene -->
  <circle cx="80" cy="155" r="4" fill="#D4AF37"/>
  <circle cx="220" cy="155" r="4" fill="#D4AF37"/>
  <circle cx="80" cy="290" r="4" fill="#D4AF37"/>
  <circle cx="220" cy="290" r="4" fill="#D4AF37"/>
  
  <rect x="30" y="320" width="240" height="15" rx="2" ry="2" fill="#333"/>
  <rect x="30" y="345" width="150" height="15" rx="2" ry="2" fill="#333"/>
  <text x="150" y="380" text-anchor="middle" fill="#D4AF37" font-family="Arial" font-size="10">PREMIUM TEMPLATE</text>
</svg>