<?xml version="1.0" encoding="UTF-8" standalone="no"?>
<svg xmlns="http://www.w3.org/2000/svg" width="800" height="600" viewBox="0 0 800 600">
  <!-- Vogue Template Preview -->
  <rect x="50" y="50" width="200" height="270" rx="5" ry="5" fill="#000" stroke="#D4AF37" stroke-width="2"/>
  <text x="150" y="100" text-anchor="middle" fill="#D4AF37" font-family="Arial" font-weight="bold" font-size="24">VOGUE</text>
  <line x1="70" y1="120" x2="230" y2="120" stroke="#D4AF37" stroke-width="1"/>
  <rect x="70" y="140" width="160" height="100" rx="2" ry="2" fill="#222" stroke="#D4AF37" stroke-width="1"/>
  <text x="150" y="190" text-anchor="middle" fill="#999" font-family="Arial" font-size="10">Feature Image</text>
  <rect x="70" y="250" width="160" height="10" rx="2" ry="2" fill="#333"/>
  <rect x="70" y="270" width="100" height="10" rx="2" ry="2" fill="#333"/>
  <rect x="70" y="290" width="160" height="10" rx="2" ry="2" fill="#333"/>

  <!-- Elle Template Preview -->
  <rect x="300" y="50" width="200" height="270" rx="5" ry="5" fill="#000" stroke="#D4AF37" stroke-width="2"/>
  <text x="400" y="100" text-anchor="middle" fill="#D4AF37" font-family="Arial" font-weight="bold" font-size="24">ELLE</text>
  <line x1="320" y1="120" x2="480" y2="120" stroke="#D4AF37" stroke-width="1"/>
  <rect x="320" y="140" width="75" height="100" rx="2" ry="2" fill="#222" stroke="#D4AF37" stroke-width="1"/>
  <rect x="405" y="140" width="75" height="100" rx="2" ry="2" fill="#222" stroke="#D4AF37" stroke-width="1"/>
  <text x="400" y="190" text-anchor="middle" fill="#999" font-family="Arial" font-size="10">Split Layout</text>
  <rect x="320" y="250" width="160" height="10" rx="2" ry="2" fill="#333"/>
  <rect x="320" y="270" width="100" height="10" rx="2" ry="2" fill="#333"/>
  <rect x="320" y="290" width="160" height="10" rx="2" ry="2" fill="#333"/>

  <!-- Harper's Bazaar Template Preview -->
  <rect x="550" y="50" width="200" height="270" rx="5" ry="5" fill="#000" stroke="#D4AF37" stroke-width="2"/>
  <text x="650" y="85" text-anchor="middle" fill="#D4AF37" font-family="Arial" font-weight="bold" font-size="18">HARPER'S</text>
  <text x="650" y="110" text-anchor="middle" fill="#D4AF37" font-family="Arial" font-weight="bold" font-size="18">BAZAAR</text>
  <line x1="570" y1="130" x2="730" y2="130" stroke="#D4AF37" stroke-width="1"/>
  <rect x="570" y="150" width="160" height="80" rx="2" ry="2" fill="#222" stroke="#D4AF37" stroke-width="1"/>
  <text x="650" y="190" text-anchor="middle" fill="#999" font-family="Arial" font-size="10">Feature Image</text>
  <rect x="570" y="240" width="75" height="60" rx="2" ry="2" fill="#222" stroke="#D4AF37" stroke-width="1"/>
  <rect x="655" y="240" width="75" height="60" rx="2" ry="2" fill="#222" stroke="#D4AF37" stroke-width="1"/>
  <text x="650" y="270" text-anchor="middle" fill="#999" font-family="Arial" font-size="8">Gallery Layout</text>

  <!-- Vanity Fair Template Preview -->
  <rect x="50" y="370" width="200" height="270" rx="5" ry="5" fill="#000" stroke="#D4AF37" stroke-width="2"/>
  <text x="150" y="405" text-anchor="middle" fill="#D4AF37" font-family="Arial" font-weight="bold" font-size="18">VANITY</text>
  <text x="150" y="430" text-anchor="middle" fill="#D4AF37" font-family="Arial" font-weight="bold" font-size="18">FAIR</text>
  <line x1="70" y1="450" x2="230" y2="450" stroke="#D4AF37" stroke-width="1"/>
  <rect x="70" y="470" width="160" height="120" rx="2" ry="2" fill="#222" stroke="#D4AF37" stroke-width="1"/>
  <line x1="90" y1="490" x2="210" y2="490" stroke="#D4AF37" stroke-width="0.5"/>
  <line x1="90" y1="510" x2="210" y2="510" stroke="#D4AF37" stroke-width="0.5"/>
  <line x1="90" y1="530" x2="210" y2="530" stroke="#D4AF37" stroke-width="0.5"/>
  <line x1="90" y1="550" x2="210" y2="550" stroke="#D4AF37" stroke-width="0.5"/>
  <line x1="90" y1="570" x2="210" y2="570" stroke="#D4AF37" stroke-width="0.5"/>
  <text x="150" y="535" text-anchor="middle" fill="#999" font-family="Arial" font-size="10">Editorial Layout</text>
  <rect x="70" y="600" width="160" height="1" rx="2" ry="2" fill="#D4AF37"/>
  <rect x="70" y="610" width="100" height="1" rx="2" ry="2" fill="#D4AF37"/>

  <!-- Selene Signature Template Preview -->
  <rect x="300" y="370" width="200" height="270" rx="5" ry="5" fill="#000" stroke="#D4AF37" stroke-width="2"/>
  <text x="400" y="405" text-anchor="middle" fill="#D4AF37" font-family="Arial" font-weight="bold" font-size="18">SELENE</text>
  <text x="400" y="430" text-anchor="middle" fill="#D4AF37" font-family="Arial" font-weight="bold" font-size="18">SIGNATURE</text>
  <line x1="320" y1="450" x2="480" y2="450" stroke="#D4AF37" stroke-width="1"/>
  
  <!-- Ornate border for Selene template -->
  <path d="M330 460 L350 460 L350 470 L330 470 Z" fill="none" stroke="#D4AF37" stroke-width="0.5"/>
  <path d="M450 460 L470 460 L470 470 L450 470 Z" fill="none" stroke="#D4AF37" stroke-width="0.5"/>
  <path d="M330 560 L350 560 L350 570 L330 570 Z" fill="none" stroke="#D4AF37" stroke-width="0.5"/>
  <path d="M450 560 L470 560 L470 570 L450 570 Z" fill="none" stroke="#D4AF37" stroke-width="0.5"/>
  
  <rect x="350" y="470" width="100" height="90" rx="2" ry="2" fill="#222" stroke="#D4AF37" stroke-width="1"/>
  <text x="400" y="515" text-anchor="middle" fill="#999" font-family="Arial" font-size="10">Luxury Layout</text>
  
  <!-- Gold accents for Selene -->
  <circle cx="350" cy="480" r="3" fill="#D4AF37"/>
  <circle cx="450" cy="480" r="3" fill="#D4AF37"/>
  <circle cx="350" cy="550" r="3" fill="#D4AF37"/>
  <circle cx="450" cy="550" r="3" fill="#D4AF37"/>
  
  <rect x="320" y="580" width="160" height="10" rx="2" ry="2" fill="#333"/>
  <rect x="320" y="600" width="100" height="10" rx="2" ry="2" fill="#333"/>
  <rect x="320" y="620" width="160" height="10" rx="2" ry="2" fill="#333"/>
</svg>